# Blender v2.80 (sub 75) OBJ File: ''
# www.blender.org
mtllib toggleBtn.mtl
o switchBtn
v -1.088495 0.381748 0.130964
v -1.088495 0.431348 0.130964
v -1.075695 0.431348 0.130964
v -1.075695 0.381748 0.130964
v -1.088495 0.714648 0.651564
v -1.075695 0.714648 0.651564
v -1.075695 0.726648 0.651564
v -1.088495 0.726648 0.651564
v -1.075695 0.392648 0.139164
v -1.088495 0.392648 0.139164
v 1.143406 0.381748 0.130964
v 1.143406 0.431348 0.130964
v 1.143406 0.440948 0.139164
v 1.143406 0.392648 0.139164
v 1.143406 1.262948 0.130964
v 1.120205 1.262948 0.130964
v 1.120205 1.252048 0.139164
v 1.143406 1.252048 0.139164
v -1.088495 1.262948 0.130964
v -1.088495 1.182448 0.130964
v -1.088495 1.173548 0.139164
v -1.088495 1.252048 0.139164
v 1.143406 0.669548 0.346064
v 1.143406 0.672148 0.364264
v 1.120205 0.672148 0.364264
v 1.120205 0.669548 0.346064
v 1.143406 0.975248 0.346064
v 1.143406 0.972548 0.364264
v 1.143406 0.945048 0.364264
v 1.143406 0.947248 0.346064
v -1.088495 0.975248 0.346064
v -1.088495 0.972548 0.364264
v -1.075695 0.972548 0.364264
v -1.075695 0.975248 0.346064
v -1.088495 0.669548 0.346064
v -1.088495 0.672148 0.364264
v -1.088495 0.689048 0.364264
v -1.088495 0.686748 0.346064
v -1.075695 1.262948 0.130964
v 1.120205 1.182448 0.130964
v -1.075695 1.182448 0.130964
v 1.120205 0.714648 0.651564
v 1.120205 0.726648 0.651564
v 1.120205 0.381748 0.130964
v 1.120205 0.392648 0.139164
v -1.075695 1.252048 0.139164
v -1.075695 0.672148 0.364264
v -1.075695 0.929748 0.651564
v 1.120205 0.929748 0.651564
v 1.120205 0.972548 0.364264
v 1.143406 1.182448 0.130964
v 1.143406 0.714648 0.651564
v 1.143406 0.726648 0.651564
v 1.143406 0.929748 0.651564
v -1.075695 0.910148 0.651564
v -1.088495 0.929748 0.651564
v -1.088495 0.910148 0.651564
v 1.143406 1.173548 0.139164
v -1.088495 0.440948 0.139164
v 1.143406 0.910148 0.651564
v 1.143406 0.689048 0.364264
v -1.088495 0.945048 0.364264
v 1.120205 0.431348 0.130964
v 1.120205 0.910148 0.651564
v -1.075695 0.669548 0.346064
v 1.120205 0.975248 0.346064
v 1.143406 0.686748 0.346064
v -1.088495 0.947248 0.346064
v -1.075695 0.646548 0.328964
v -1.088495 0.646548 0.328964
v 1.143406 0.666348 0.328964
v 1.143406 0.646548 0.328964
v 1.120205 0.998148 0.328964
v 1.143406 0.998148 0.328964
v -1.088495 0.966048 0.328964
v -1.088495 0.998148 0.328964
v 1.120205 0.646548 0.328964
v -1.075695 0.998148 0.328964
v 1.143406 0.966048 0.328964
v -1.088495 0.666348 0.328964
vt 1.000000 0.000000
vt 1.000000 0.056200
vt 0.994300 0.056200
vt 0.994300 0.000000
vt 0.000000 0.000000
vt 0.005700 0.000000
vt 0.005700 0.056200
vt 0.000000 0.056200
vt 0.000000 0.000000
vt 0.005700 0.000000
vt 0.005700 0.019000
vt 0.000000 0.019000
vt 0.000000 0.000000
vt 0.056200 0.000000
vt 0.056200 0.019000
vt 0.000000 0.019000
vt 0.000000 0.000000
vt 0.010400 0.000000
vt 0.010400 0.019000
vt 0.000000 0.019000
vt 0.000000 0.000000
vt 0.091300 0.000000
vt 0.091300 0.019000
vt 0.000000 0.019000
vt 1.000000 0.500000
vt 1.000000 0.529700
vt 0.989600 0.529700
vt 0.989600 0.500000
vt 1.000000 0.500000
vt 1.000000 0.529700
vt 0.908700 0.529700
vt 0.908700 0.500000
vt 1.000000 0.500000
vt 1.000000 0.529700
vt 0.994300 0.529700
vt 0.994300 0.500000
vt 1.000000 0.500000
vt 1.000000 0.529700
vt 0.943800 0.529700
vt 0.943800 0.500000
vt 0.994300 1.000000
vt 0.010400 1.000000
vt 0.010400 0.908700
vt 0.994300 0.908700
vt 0.989600 0.000000
vt 0.989600 0.056200
vt 0.989600 0.000000
vt 0.989600 0.019000
vt 0.994300 0.000000
vt 1.000000 0.000000
vt 1.000000 0.019000
vt 0.994300 0.019000
vt 0.005700 1.000000
vt 0.000000 1.000000
vt 0.000000 0.529700
vt 0.005700 0.529700
vt 0.994300 1.000000
vt 0.010400 1.000000
vt 0.010400 0.529700
vt 0.989600 1.000000
vt 0.000000 1.000000
vt 0.000000 0.908700
vt 1.000000 0.000000
vt 1.000000 0.056200
vt 1.000000 0.000000
vt 1.000000 0.019000
vt 0.000000 1.000000
vt 0.000000 0.529700
vt 1.000000 0.908700
vt 1.000000 1.000000
vt 0.005700 0.908700
vt 0.005700 1.000000
vt 0.000000 1.000000
vt 0.000000 0.908700
vt 0.908700 0.000000
vt 1.000000 0.000000
vt 1.000000 0.019000
vt 0.908700 0.019000
vt 0.943800 0.000000
vt 0.943800 0.019000
vt 0.908700 1.000000
vt 0.056200 1.000000
vt 0.056200 0.529700
vt 0.091300 1.000000
vt 0.000000 0.529700
vt 0.091300 0.529700
vt 0.010400 0.056200
vt 0.989600 0.908700
vt 0.989600 1.000000
vt 0.000000 0.056200
vt 1.000000 0.908700
vt 1.000000 1.000000
vt 0.943800 1.000000
vt 1.000000 0.019000
vt 0.000000 1.000000
vt 0.000000 0.529700
vt 0.010400 0.000000
vt 1.000000 1.000000
vt 1.000000 1.000000
vt 1.000000 1.000000
vt 0.000000 0.500000
vt 0.005700 0.500000
vt 0.010400 0.500000
vt 0.000000 0.500000
vt 0.056200 0.500000
vt 0.000000 0.500000
vt 0.091300 0.500000
vt 0.000000 0.500000
vt 0.005700 0.460100
vt 0.000000 0.460100
vt 0.056200 0.460100
vt 0.000000 0.460100
vt 0.010400 0.460100
vt 0.000000 0.460100
vt 0.091300 0.460100
vt 0.000000 0.460100
vt 0.989600 0.460100
vt 1.000000 0.460100
vt 0.994300 0.460100
vt 1.000000 0.460100
vt 1.000000 0.460100
vt 0.908700 0.460100
vt 0.943800 0.460100
vt 1.000000 0.460100
vn -0.5436 -0.7965 -0.2648
vn -0.7071 0.0000 -0.7071
vn 0.0000 0.0000 -1.0000
vn 0.0000 -0.9489 -0.3155
vn -0.5855 -0.5296 0.6138
vn 0.0000 -0.6533 0.7571
vn 0.0000 0.0000 1.0000
vn -0.7071 -0.0000 0.7071
vn 0.0000 -0.5988 0.8009
vn -0.7071 -0.4235 0.5663
vn 0.5436 -0.7965 -0.2648
vn 0.7071 0.0000 -0.7071
vn 1.0000 0.0000 0.0000
vn 0.7071 -0.4235 0.5663
vn 0.5436 0.7965 -0.2648
vn 0.0000 0.9489 -0.3155
vn -0.0000 0.5988 0.8009
vn 0.7071 0.4235 0.5663
vn -0.5436 0.7964 -0.2649
vn -1.0000 0.0000 0.0000
vn -0.7071 0.4235 0.5663
vn 0.8038 -0.5110 0.3047
vn 0.7071 -0.6995 0.1032
vn 0.0000 -0.9893 0.1460
vn -0.0000 -0.8589 0.5121
vn 0.8038 0.5108 0.3050
vn 0.7070 0.6995 0.1040
vn -0.8036 0.5110 0.3052
vn -0.7070 0.6995 0.1040
vn 0.0000 0.9891 0.1470
vn 0.0000 0.8586 0.5127
vn -0.8038 -0.5110 0.3046
vn -0.7070 -0.6996 0.1032
vn 0.0000 0.6529 0.7574
vn 0.5853 -0.5299 0.6136
vn 0.7071 -0.0000 0.7071
vn 0.5855 0.5293 0.6140
vn -0.5855 0.5293 0.6140
vn 0.0000 -0.5987 0.8010
vn -0.7071 -0.4234 0.5663
vn 0.7071 -0.4233 0.5664
vn 0.0000 0.5985 0.8011
vn 0.7070 0.4233 0.5665
vn -0.7070 0.4233 0.5665
usemtl wire_000000000.002
s 1
f 1/1/1 2/2/2 3/3/3 4/4/4
f 5/5/5 6/6/6 7/7/7 8/8/8
f 1/9/1 4/10/4 9/11/9 10/12/10
f 11/13/11 12/14/12 13/15/13 14/16/14
f 15/17/15 16/18/16 17/19/17 18/20/18
f 19/21/19 20/22/2 21/23/20 22/24/21
f 23/25/22 24/26/23 25/27/24 26/28/25
f 27/29/26 28/30/27 29/31/13 30/32/13
f 31/33/28 32/34/29 33/35/30 34/36/31
f 35/37/32 36/38/33 37/39/20 38/40/20
f 39/41/16 16/42/16 40/43/3 41/44/3
f 6/6/6 42/45/6 43/46/7 7/7/7
f 4/10/4 44/47/4 45/48/9 9/11/9
f 39/49/16 19/50/19 22/51/21 46/52/17
f 6/53/6 5/54/5 36/55/33 47/56/24
f 48/57/34 49/58/34 50/59/30 33/35/30
f 16/18/16 39/49/16 46/52/17 17/19/17
f 42/60/6 6/53/6 47/56/24 25/27/24
f 16/42/16 15/61/15 51/62/12 40/43/3
f 42/45/6 52/63/35 53/64/36 43/46/7
f 44/47/4 11/65/11 14/66/14 45/48/9
f 49/58/34 54/67/37 28/68/27 50/59/30
f 20/69/2 19/70/19 39/41/16 41/44/3
f 55/71/7 48/72/34 56/73/38 57/74/8
f 51/75/12 15/76/15 18/77/18 58/78/13
f 20/22/2 2/79/2 59/80/20 21/23/20
f 60/81/36 53/82/36 61/83/13 29/31/13
f 57/84/8 56/73/38 32/85/29 62/86/20
f 40/43/3 63/87/3 3/3/3 41/44/3
f 64/88/7 49/89/34 48/72/34 55/71/7
f 51/62/12 12/90/12 63/87/3 40/43/3
f 60/91/36 54/92/37 49/89/34 64/88/7
f 2/2/2 20/69/2 41/44/3 3/3/3
f 7/7/7 55/71/7 57/74/8 8/8/8
f 12/14/12 51/75/12 58/78/13 13/15/13
f 8/93/8 57/84/8 62/86/20 37/39/20
f 43/46/7 64/88/7 55/71/7 7/7/7
f 53/64/36 60/91/36 64/88/7 43/46/7
f 2/79/2 1/1/1 10/94/10 59/80/20
f 53/82/36 52/95/35 24/96/23 61/83/13
f 63/87/3 44/97/4 4/4/4 3/3/3
f 12/90/12 11/13/11 44/97/4 63/87/3
f 24/26/23 52/98/35 42/60/6 25/27/24
f 28/30/27 54/92/37 60/81/36 29/31/13
f 32/34/29 56/99/38 48/57/34 33/35/30
f 36/38/33 5/100/5 8/93/8 37/39/20
f 36/55/33 35/101/32 65/102/25 47/56/24
f 50/59/30 66/103/31 34/36/31 33/35/30
f 47/56/24 65/102/25 26/28/25 25/27/24
f 28/68/27 27/104/26 66/103/31 50/59/30
f 61/83/13 67/105/13 30/32/13 29/31/13
f 32/85/29 31/106/28 68/107/20 62/86/20
f 62/86/20 68/107/20 38/40/20 37/39/20
f 24/96/23 23/108/22 67/105/13 61/83/13
f 69/109/39 65/102/25 35/101/32 70/110/40
f 71/111/13 67/105/13 23/108/22 72/112/41
f 73/113/42 66/103/31 27/104/26 74/114/43
f 75/115/20 68/107/20 31/106/28 76/116/44
f 77/117/9 26/28/25 65/102/25 69/109/39
f 76/118/44 31/33/28 34/36/31 78/119/42
f 78/119/42 34/36/31 66/103/31 73/113/42
f 72/120/41 23/25/22 26/28/25 77/117/9
f 74/121/43 27/29/26 30/32/13 79/122/13
f 80/123/20 38/40/20 68/107/20 75/115/20
f 79/122/13 30/32/13 67/105/13 71/111/13
f 70/124/40 35/37/32 38/40/20 80/123/20
f 9/11/9 69/109/39 70/110/40 10/12/10
f 13/15/13 71/111/13 72/112/41 14/16/14
f 17/19/17 73/113/42 74/114/43 18/20/18
f 21/23/20 75/115/20 76/116/44 22/24/21
f 45/48/9 77/117/9 69/109/39 9/11/9
f 22/51/21 76/118/44 78/119/42 46/52/17
f 46/52/17 78/119/42 73/113/42 17/19/17
f 14/66/14 72/120/41 77/117/9 45/48/9
f 18/77/18 74/121/43 79/122/13 58/78/13
f 59/80/20 80/123/20 75/115/20 21/23/20
f 58/78/13 79/122/13 71/111/13 13/15/13
f 10/94/10 70/124/40 80/123/20 59/80/20
